<svg width="20" height="22" viewBox="0 0 20 22" fill="none" xmlns="http://www.w3.org/2000/svg">
<g id="Group 360">
<path id="Subtract" d="M20 15.0405C20 18.3542 17.3137 21.0405 14 21.0405H6C2.68629 21.0405 0 18.3542 0 15.0405V10.0405C0 9.48824 0.447715 9.04053 1 9.04053C1.55228 9.04053 2 9.48824 2 10.0405V14.0405C2 16.802 4.23858 19.0405 7 19.0405H13C15.7614 19.0405 18 16.802 18 14.0405V10.0405C18 9.48824 18.4477 9.04053 19 9.04053C19.5523 9.04053 20 9.48824 20 10.0405V15.0405Z" fill="white"/>
<path id="Union" d="M9.81051 0C10.6387 0.00022158 11.3105 0.67171 11.3105 1.5V9.34863H13.2138C14.0954 9.34863 14.5457 10.4067 13.9345 11.042L10.5302 14.5801C10.1369 14.9884 9.4831 14.9884 9.0898 14.5801L5.68551 11.042C5.07452 10.4067 5.52468 9.34867 6.40621 9.34863H8.31051V1.5C8.31051 0.671573 8.98208 0 9.81051 0Z" fill="white"/>
</g>
</svg>
